<?xml version="1.0" encoding="utf-8"?>
<!-- Generator: Adobe Illustrator 21.0.0, SVG Export Plug-In . SVG Version: 6.00 Build 0)  -->
<svg version="1.1" xmlns="http://www.w3.org/2000/svg" xmlns:xlink="http://www.w3.org/1999/xlink" x="0px" y="0px"
	 viewBox="0 0 48 48" style="enable-background:new 0 0 48 48;" xml:space="preserve">
<style type="text/css">
	.st0{display:none;}
	.st1{display:inline;fill:none;}
	.st2{display:inline;}
	.st3{fill:#FFFFFF;}
	.st4{fill:none;}
</style>
<g id="completo" class="st0">
	<path class="st1" d="M0,0h48v48H0V0z"/>
	<path class="st2" d="M24,4C13,4,4,13,4,24s9,20,20,20s20-9,20-20S35,4,24,4z M22,39.9c-7.9-1-14-7.7-14-15.9c0-1.2,0.2-2.4,0.4-3.6
		L18,30v2c0,2.2,1.8,4,4,4V39.9z M35.8,34.8c-0.5-1.6-2-2.8-3.8-2.8h-2v-6c0-1.1-0.9-2-2-2H16v-4h4c1.1,0,2-0.9,2-2v-4h4
		c2.2,0,4-1.8,4-4V9.2c5.9,2.4,10,8.1,10,14.8C40,28.2,38.4,31.9,35.8,34.8z"/>
	<g id="Capa_2" class="st2">
		<path class="st3" d="M40,23h-8c-0.6,0-1-0.4-1-1V2c0-0.6,0.4-1,1-1h8c0.6,0,1,0.4,1,1v20C41,22.6,40.6,23,40,23z"/>
		<path class="st3" d="M25,16V8c0-0.6,0.4-1,1-1h20c0.6,0,1,0.4,1,1v8c0,0.6-0.4,1-1,1H26C25.4,17,25,16.6,25,16z"/>
	</g>
	<polygon class="st2" points="38,10 38,4 34,4 34,10 28,10 28,14 34,14 34,20 38,20 38,14 44,14 44,10 	"/>
</g>
<g id="Capa_1_copia">
	<path class="st4" d="M0,0h48v48H0V0z"/>
	<path d="M41,17v5c0,0.6-0.4,1-1,1h0c0,0.3,0,0.7,0,1c0,4.2-1.6,7.9-4.2,10.8c-0.5-1.6-2-2.8-3.8-2.8h-2v-6c0-1.1-0.9-2-2-2H16v-4h4
		c1.1,0,2-0.9,2-2v-4h3V8c0-0.6,0.4-1,1-1h5V5.3C28.8,4.5,26.5,4,24,4C13,4,4,13,4,24s9,20,20,20s20-9,20-20c0-2.5-0.5-4.8-1.3-7H41
		z M22,39.9c-7.9-1-14-7.7-14-15.9c0-1.2,0.2-2.4,0.4-3.6L18,30v2c0,2.2,1.8,4,4,4V39.9z"/>
	<polygon points="38,10 38,4 34,4 34,10 28,10 28,14 34,14 34,20 38,20 38,14 44,14 44,10 	"/>
</g>
</svg>
